<?xml version="1.0" standalone="no"?>
<!DOCTYPE svg PUBLIC "-//W3C//DTD SVG 20010904//EN"
 "http://www.w3.org/TR/2001/REC-SVG-20010904/DTD/svg10.dtd">
<svg version="1.0" xmlns="http://www.w3.org/2000/svg"
 width="800.000000pt" height="800.000000pt" viewBox="0 0 800.000000 800.000000"
 preserveAspectRatio="xMidYMid meet">

<g transform="translate(0.000000,800.000000) scale(0.100000,-0.100000)"
fill="#000000" stroke="none">
<path d="M3845 6209 c-1302 -383 -1668 -494 -1699 -516 -24 -17 -51 -50 -68
-82 -39 -74 -37 -130 7 -260 l35 -104 -22 -29 c-29 -41 -58 -140 -58 -196 0
-103 60 -233 131 -283 l28 -20 3 -677 3 -677 31 -55 c22 -38 46 -64 79 -85
l48 -30 896 -3 c493 -1 905 0 917 2 43 11 51 81 12 114 -11 9 -233 12 -901 14
l-887 3 -27 28 -28 27 -3 639 -2 638 76 1 c68 1 86 5 150 37 82 40 130 89 172
175 23 48 27 67 27 147 l0 93 1501 0 1500 0 30 -31 29 -30 0 -817 c0 -449 -3
-830 -8 -845 -13 -48 -59 -67 -164 -67 -138 0 -133 8 -133 -238 0 -224 -5
-242 -65 -242 -30 0 -54 21 -267 240 l-233 240 -192 0 -192 0 -20 -26 c-25
-32 -26 -52 -5 -82 15 -21 21 -22 177 -22 l162 0 225 -226 c232 -233 271 -263
343 -264 66 0 146 46 180 105 7 12 14 90 17 200 l5 180 75 5 c111 8 178 56
214 152 15 39 16 128 14 894 l-3 851 -30 49 c-19 30 -49 60 -79 79 l-49 30
-981 5 c-540 3 -967 9 -951 13 40 10 345 100 1085 317 338 100 656 193 705
207 110 32 151 51 192 95 42 44 63 96 63 159 0 46 -88 372 -136 505 -31 86
-134 155 -228 153 -23 0 -788 -221 -1701 -490z m1750 342 c3 -5 -79 -155 -181
-333 -103 -178 -201 -348 -218 -378 -32 -54 -32 -54 -119 -81 -137 -42 -141
-43 -133 -22 6 14 404 709 441 767 21 35 194 73 210 47z m-398 -98 c-3 -5 -89
-154 -192 -333 -103 -179 -206 -355 -229 -393 l-41 -67 -80 -24 c-153 -47
-149 -62 -29 145 58 101 163 282 232 402 l125 217 86 26 c47 14 91 27 96 29
18 6 36 5 32 -2z m538 -251 c41 -143 46 -167 35 -192 -6 -16 -20 -36 -29 -44
-16 -14 -371 -127 -380 -120 -2 2 58 110 134 241 187 323 177 308 185 292 4
-8 29 -87 55 -177z m-963 106 c-11 -18 -113 -195 -227 -393 -114 -198 -210
-364 -215 -368 -9 -10 -202 -69 -207 -63 -2 2 20 46 50 97 29 52 132 229 227
394 95 165 174 302 176 303 4 5 186 60 202 61 10 1 8 -8 -6 -31z m-419 -140
c-109 -199 -418 -726 -434 -739 -17 -16 -196 -66 -203 -58 -3 3 437 774 450
787 4 5 186 60 202 61 9 1 4 -17 -15 -51z m-383 -71 c0 -2 -87 -154 -193 -338
-106 -184 -206 -357 -222 -386 l-29 -52 -118 -29 c-65 -16 -118 -26 -118 -22
0 4 94 176 208 381 l208 374 119 36 c115 36 145 43 145 36z m-654 -492 l-198
-355 -99 0 c-54 0 -99 2 -99 4 0 2 84 149 188 327 l187 324 105 31 c58 17 107
29 109 28 2 -2 -85 -163 -193 -359z m-305 83 c-48 -84 -125 -217 -170 -295
-80 -139 -83 -143 -116 -143 -24 0 -43 9 -69 35 -20 19 -50 42 -68 51 -18 9
-35 18 -37 20 -1 1 43 90 98 196 l102 193 157 47 c86 25 165 47 174 47 13 1
-5 -37 -71 -151z m-522 -149 c-78 -150 -77 -149 -169 -168 -97 -21 -91 -24
-116 54 -41 129 -22 151 193 215 87 26 160 46 162 45 1 -2 -30 -68 -70 -146z
m-16 -300 c47 -13 112 -70 138 -120 26 -51 26 -147 0 -197 -71 -138 -237 -172
-352 -73 -53 45 -79 101 -79 171 0 71 26 126 81 173 63 54 130 69 212 46z"/>
<path d="M2590 4613 c-32 -12 -50 -37 -50 -69 0 -58 20 -64 226 -64 l183 0 20
26 c26 33 26 55 2 85 -19 23 -24 24 -193 26 -95 1 -180 -1 -188 -4z"/>
<path d="M3238 4604 c-38 -20 -46 -58 -21 -92 l20 -27 1176 -3 1176 -2 21 22
c25 27 26 59 1 89 l-19 24 -1164 2 c-1015 2 -1166 0 -1190 -13z"/>
<path d="M2562 4294 c-26 -18 -30 -69 -8 -100 14 -19 39 -19 1184 -21 1162 -2
1171 -2 1196 18 19 15 26 30 26 54 0 70 84 65 -1210 65 -1039 0 -1168 -2
-1188 -16z"/>
<path d="M5200 4290 c-29 -29 -26 -74 7 -100 26 -20 36 -21 206 -18 174 3 179
4 198 27 25 31 24 63 -4 89 -22 21 -32 22 -205 22 -169 0 -183 -1 -202 -20z"/>
<path d="M2580 3999 c-31 -13 -40 -26 -40 -66 0 -67 -81 -63 1210 -63 1039 0
1168 2 1188 16 29 20 30 74 1 100 -20 18 -56 19 -1178 21 -747 1 -1165 -2
-1181 -8z"/>
<path d="M2562 3684 c-26 -18 -29 -68 -6 -99 14 -19 27 -20 205 -20 190 0 191
0 210 24 22 27 19 63 -8 94 -14 15 -37 17 -197 17 -148 0 -186 -3 -204 -16z"/>
<path d="M3221 3674 c-26 -33 -26 -55 -2 -85 l19 -24 1171 -3 1172 -2 24 24
c31 31 32 69 3 96 -22 20 -28 20 -1194 20 l-1173 0 -20 -26z"/>
<path d="M2900 1612 c-43 -23 -75 -81 -65 -119 9 -39 69 -91 113 -99 107 -18
138 -35 152 -83 7 -26 5 -36 -16 -60 -46 -55 -143 -53 -202 5 -39 38 -50 41
-58 19 -18 -46 77 -107 166 -107 96 0 160 49 160 124 0 80 -44 119 -154 139
-80 14 -106 34 -106 84 0 47 35 70 108 69 48 0 58 -4 83 -32 28 -31 53 -40 63
-24 10 16 -32 69 -67 85 -47 23 -133 22 -177 -1z"/>
<path d="M3664 1616 c-3 -8 -4 -89 -2 -180 3 -148 5 -167 24 -192 30 -41 65
-64 106 -70 112 -19 195 58 186 171 -10 119 -128 184 -222 120 -44 -30 -45
-28 -48 80 -3 67 -6 80 -21 83 -9 2 -20 -3 -23 -12z m223 -192 c68 -44 51
-172 -26 -204 -25 -10 -40 -10 -70 -2 -50 16 -72 42 -78 95 -12 106 87 169
174 111z"/>
<path d="M4742 1618 c-8 -8 -12 -63 -12 -187 0 -148 3 -182 18 -210 27 -54
102 -69 102 -21 0 15 -7 20 -24 20 -14 0 -28 6 -33 13 -4 6 -10 97 -13 201 -5
186 -10 212 -38 184z"/>
<path d="M4330 1605 c-10 -12 -11 -21 -4 -33 15 -22 27 -24 49 -8 16 12 18 18
9 33 -15 24 -38 27 -54 8z"/>
<path d="M4098 1533 c-2 -47 -6 -57 -19 -55 -9 1 -22 -5 -30 -14 -11 -13 -10
-17 2 -25 8 -5 22 -9 32 -9 15 0 17 -11 17 -90 0 -49 5 -101 12 -115 21 -46
93 -71 118 -40 16 19 4 35 -25 35 -44 0 -55 23 -55 121 l0 89 29 0 c61 0 59
44 -3 52 -28 3 -29 5 -30 53 -1 44 -4 50 -23 53 -20 3 -22 -1 -25 -55z"/>
<path d="M4527 1584 c-4 -4 -7 -29 -7 -56 0 -40 -3 -48 -19 -48 -20 0 -48 -27
-37 -37 3 -3 16 -7 29 -8 21 -2 22 -7 27 -101 5 -108 17 -136 62 -155 36 -15
80 -4 76 19 -2 9 -14 19 -28 20 -50 7 -60 27 -60 124 l0 88 29 0 c36 0 57 22
37 39 -8 7 -25 11 -38 9 -21 -3 -23 1 -28 52 -4 39 -10 56 -20 58 -9 1 -19 0
-23 -4z"/>
<path d="M3249 1468 c-17 -31 -6 -184 16 -229 30 -63 133 -91 192 -52 24 16
26 16 39 -1 7 -11 20 -16 29 -13 13 5 15 30 15 156 0 151 -6 175 -35 151 -11
-9 -15 -37 -15 -112 0 -55 -4 -108 -10 -118 -13 -24 -74 -44 -108 -35 -15 3
-37 16 -49 27 -21 20 -23 31 -23 123 0 65 -4 105 -12 113 -17 17 -26 15 -39
-10z"/>
<path d="M4342 1482 c-9 -7 -12 -45 -10 -158 3 -141 4 -149 23 -149 19 0 20 7
20 154 0 152 -4 171 -33 153z"/>
<path d="M4963 1465 c-101 -61 -92 -228 14 -279 57 -27 165 -13 188 24 14 23
-11 31 -50 14 -56 -23 -113 -13 -147 26 -49 54 -42 59 95 62 l122 3 -1 45 c-1
110 -119 166 -221 105z m146 -41 c19 -16 31 -35 31 -50 0 -24 -1 -24 -100 -24
-57 0 -100 4 -100 10 0 25 28 64 55 76 46 20 80 17 114 -12z"/>
</g>
</svg>
